<?xml version="1.0" encoding="UTF-8" standalone="no"?>
<!-- Created with Inkscape (http://www.inkscape.org/) -->

<svg
   width="36.123104"
   height="57.089569"
   viewBox="0 0 9.5575711 15.104948"
   version="1.1"
   id="svg1"
   inkscape:version="1.3 (0e150ed6c4, 2023-07-21)"
   sodipodi:docname="oblong.svg"
   xmlns:inkscape="http://www.inkscape.org/namespaces/inkscape"
   xmlns:sodipodi="http://sodipodi.sourceforge.net/DTD/sodipodi-0.dtd"
   xmlns="http://www.w3.org/2000/svg"
   xmlns:svg="http://www.w3.org/2000/svg">
  <sodipodi:namedview
     id="namedview1"
     pagecolor="#ffffff"
     bordercolor="#666666"
     borderopacity="1.0"
     inkscape:showpageshadow="2"
     inkscape:pageopacity="0.0"
     inkscape:pagecheckerboard="0"
     inkscape:deskcolor="#d1d1d1"
     inkscape:document-units="mm"
     showgrid="true"
     inkscape:zoom="7.8514248"
     inkscape:cx="36.490192"
     inkscape:cy="35.853365"
     inkscape:window-width="1920"
     inkscape:window-height="1017"
     inkscape:window-x="1912"
     inkscape:window-y="-8"
     inkscape:window-maximized="1"
     inkscape:current-layer="layer1">
    <inkscape:grid
       id="grid1"
       units="px"
       originx="-15.064841"
       originy="-2.6022529"
       spacingx="16.933333"
       spacingy="16.933333"
       empcolor="#0099e5"
       empopacity="0.30196078"
       color="#0099e5"
       opacity="0.14901961"
       empspacing="5"
       dotted="false"
       gridanglex="30"
       gridanglez="30"
       visible="true" />
  </sodipodi:namedview>
  <defs
     id="defs1" />
  <g
     inkscape:label="Layer 1"
     inkscape:groupmode="layer"
     id="layer1"
     transform="translate(-3.985906,-0.68851276)">
    <g
       id="g31"
       transform="translate(0.70767413,0.33698767)"
       inkscape:export-filename="body.svg"
       inkscape:export-xdpi="90"
       inkscape:export-ydpi="90">
      <path
         style="fill:#99bfca;fill-opacity:1;stroke:#000000;stroke-width:0.264583px;stroke-linecap:butt;stroke-linejoin:miter;stroke-opacity:1"
         d="m 7.6169393,1.9116199 c -2.2848448,0 -3.5914614,4.0101169 -3.6402811,6.2962905 -0.054225,2.5392986 1.1024582,7.1162716 3.6402811,7.1162716 2.5378237,0 3.6945057,-4.576973 3.6402817,-7.1162716 C 11.208401,5.9217369 9.901784,1.9116199 7.6169393,1.9116199 Z"
         id="path1"
         sodipodi:nodetypes="sssss" />
      <path
         style="fill:#7f6948;fill-opacity:1;stroke:#000000;stroke-width:0.264583px;stroke-linecap:butt;stroke-linejoin:miter;stroke-opacity:1"
         d="m 4.2065497,10.477238 -0.703491,3.810211 6.6831653,0.06212 0.393128,-5.1769179 z"
         id="path9" />
      <path
         style="fill:#7f6948;fill-opacity:1;stroke:#000000;stroke-width:0.264583px;stroke-linecap:butt;stroke-linejoin:miter;stroke-opacity:1"
         d="M 10.320352,14.35498 11.620477,14.23344 10.682805,9.0069944 Z"
         id="path10"
         sodipodi:nodetypes="cccc" />
      <g
         id="g28">
        <path
           style="fill:#715328;fill-opacity:1;stroke:#000000;stroke-width:0.264583px;stroke-linecap:butt;stroke-linejoin:miter;stroke-opacity:1"
           d="m 4.5376045,3.7058292 c 0,0 1.3093616,-2.3053743 3.1545878,-2.2883485 1.3444516,0.012405 2.9492317,2.1848101 2.9492317,2.1848101 -2.0910968,0.4297174 -4.1478167,0.618935 -6.1038195,0.1035384 z"
           id="path2"
           sodipodi:nodetypes="cscc" />
        <path
           style="fill:#553200;fill-opacity:1;stroke:#000000;stroke-width:0.264583px;stroke-linecap:butt;stroke-linejoin:miter;stroke-opacity:1"
           d="m 8.5295236,3.960437 c 0,0 3.7833974,1.1046951 4.1618524,-0.269897 0.200802,-0.7293277 -1.941462,-0.3530286 -1.941462,-0.3530286 z"
           id="path3"
           sodipodi:nodetypes="cscc" />
        <path
           style="fill:#553200;fill-opacity:1;stroke:#000000;stroke-width:0.264583px;stroke-linecap:butt;stroke-linejoin:miter;stroke-opacity:1"
           d="m 4.6027829,3.6338672 c 0,0 -1.5208464,0.4430889 -1.1312852,1.2013778 C 3.944234,5.7554361 5.718791,3.9509308 5.718791,3.9509308 Z"
           id="path4"
           sodipodi:nodetypes="cscc" />
        <path
           style="fill:#553200;fill-opacity:1;stroke:#000000;stroke-width:0.264583px;stroke-linecap:butt;stroke-linejoin:miter;stroke-opacity:1"
           d="M 7.268308,1.5014436 C 6.3003091,2.3161882 5.8714545,3.1309328 6.0582256,3.9456774 c 0.5986724,0.053844 1.1973449,0.080784 1.7960172,0 C 7.4271872,3.113959 7.5830707,2.2822406 7.7905543,1.4505221 Z"
           id="path12"
           sodipodi:nodetypes="ccccc" />
        <path
           style="fill:#553200;fill-opacity:1;stroke:#000000;stroke-width:0.264583px;stroke-linecap:butt;stroke-linejoin:miter;stroke-opacity:1"
           d="m 7.4211607,1.4759829 c 0,0 -1.146394,-0.4073723 -0.8661642,-0.85293579 C 6.8352259,0.17748363 7.3956852,1.1577233 7.4211607,1.4759829 Z"
           id="path13" />
        <path
           style="fill:#553200;fill-opacity:1;stroke:#000000;stroke-width:0.264583px;stroke-linecap:butt;stroke-linejoin:miter;stroke-opacity:1"
           d="m 7.5132847,1.4505221 c 0,0 1.1463941,-0.4073723 0.8661642,-0.85293584 C 8.0992195,0.15202289 7.5387602,1.1322625 7.5132847,1.4505221 Z"
           id="path14" />
      </g>
      <g
         id="g17"
         transform="matrix(1.0691099,0,0,1.068495,-1.1003674,-0.35719252)"
         style="stroke-width:0.935627">
        <path
           style="fill:#000000;stroke:none;stroke-width:0.247552px;stroke-linecap:butt;stroke-linejoin:miter;stroke-opacity:1"
           d="M 9.5634531,4.9115917 C 9.1939691,4.9175489 9.1699517,5.4813645 9.1646028,5.8061926 9.1586528,6.1669859 9.1960371,6.8232575 9.5634531,6.8173003 9.9308691,6.8113431 9.9682447,6.1669859 9.9623036,5.8061926 9.9569556,5.4813645 9.9329371,4.9056345 9.5634531,4.9115917 Z"
           id="path16"
           sodipodi:nodetypes="zszsz" />
        <path
           style="fill:#f9f9f9;stroke:none;stroke-width:0.247552px;stroke-linecap:butt;stroke-linejoin:miter;stroke-opacity:1"
           d="M 9.7272723,5.0902818 C 9.5644512,5.0930374 9.5538672,5.3537221 9.55151,5.5039097 9.548866,5.6707262 9.5653647,5.9741601 9.7272723,5.9714057 9.8891821,5.9686501 9.9056522,5.6707262 9.9030341,5.5039097 9.9006986,5.3537221 9.8900916,5.0875274 9.7272723,5.0902818 Z"
           id="path17"
           sodipodi:nodetypes="zszsz" />
      </g>
      <g
         id="g19"
         transform="matrix(1.0691099,0,0,1.068495,0.03110725,-0.35719252)"
         style="stroke-width:0.935627">
        <path
           style="fill:#000000;stroke:none;stroke-width:0.247552px;stroke-linecap:butt;stroke-linejoin:miter;stroke-opacity:1"
           d="M 9.5634531,4.9115917 C 9.1939691,4.9175489 9.1699517,5.4813645 9.1646028,5.8061926 9.1586528,6.1669859 9.1960371,6.8232575 9.5634531,6.8173003 9.9308691,6.8113431 9.9682447,6.1669859 9.9623036,5.8061926 9.9569556,5.4813645 9.9329371,4.9056345 9.5634531,4.9115917 Z"
           id="path18"
           sodipodi:nodetypes="zszsz" />
        <path
           style="fill:#f9f9f9;stroke:none;stroke-width:0.247552px;stroke-linecap:butt;stroke-linejoin:miter;stroke-opacity:1"
           d="M 9.7272723,5.0902818 C 9.5644512,5.0930374 9.5538672,5.3537221 9.55151,5.5039097 9.548866,5.6707262 9.5653647,5.9741601 9.7272723,5.9714057 9.8891821,5.9686501 9.9056522,5.6707262 9.9030341,5.5039097 9.9006986,5.3537221 9.8900916,5.0875274 9.7272723,5.0902818 Z"
           id="path19"
           sodipodi:nodetypes="zszsz" />
      </g>
      <path
         style="fill:#715328;fill-opacity:1;stroke:#000000;stroke-width:0.264583px;stroke-linecap:butt;stroke-linejoin:miter;stroke-opacity:1"
         d="m 4.1237861,7.0190569 6.5176379,2.0086442 -0.51287,2.6497299 C 8.3716254,11.8084 4.7007482,11.872077 3.5125412,10.311577 3.532218,9.2324666 3.6289708,8.1456535 4.1237861,7.0190569 Z"
         id="path7"
         sodipodi:nodetypes="ccccc" />
      <path
         style="fill:#715328;fill-opacity:1;stroke:#000000;stroke-width:0.264583px;stroke-linecap:butt;stroke-linejoin:miter;stroke-opacity:1"
         d="M 10.724188,9.0069933 10.94716,11.681915 11.990736,11.500027 11.311568,8.7449804 Z"
         id="path8"
         sodipodi:nodetypes="ccccc" />
    </g>
  </g>
</svg>
